<svg width="500" height="509" viewBox="0 0 500 509" xmlns="http://www.w3.org/2000/svg"><title>Mong-Bang Logo</title><desc>Created with Sketch.</desc><defs><linearGradient x1="116.069%" y1="133.585%" x2="116.069%" y2="0%" id="a"><stop stop-color="#0084FF" offset="0%"/><stop stop-color="#4AC0CD" offset="100%"/></linearGradient></defs><g fill="url(#a)"><path d="M165.29 264.383c0 43.815 36.24 79.337 80.95 79.337 44.704 0 80.95-35.522 80.95-79.337 0-43.816-36.246-79.338-80.95-79.338-44.71 0-80.95 35.522-80.95 79.338"/><path d="M357.87 372.495c-22.875 22.74-32.398 52.113-26.856 75.26-24.844 10.593-52.23 16.502-81.01 16.502H46.065V264.383c0-52.59 20.854-100.482 54.86-136.2 13.9 7.82 31.22 9.488 47.028 2.92l84.222-34.984c5.492-2.28 8.062-8.5 5.733-13.886l-.984-2.27c-2.33-5.386-8.67-7.9-14.167-5.617L164.05 98.735c-4.2 1.742-9.05-.18-10.832-4.297l-.352-.82c-1.782-4.115.18-8.87 4.383-10.616l58.704-24.388c5.497-2.28 8.062-8.5 5.733-13.88-2.57-5.944-9.564-8.72-15.628-6.2l-57.68 23.96c-4.203 1.743-9.053-.18-10.835-4.296l-.35-.818c-1.783-4.117.18-8.87 4.38-10.618l57.682-23.96c6.06-2.516 8.89-9.373 6.325-15.317l-.115-.256c-2.565-5.945-9.563-8.716-15.628-6.2l-83.193 34.557c-22.556 9.368-35.01 32.525-31.642 55.28C29.277 135.142.885 196.558.885 264.384V508.54h249.12c40.813 0 79.362-9.68 113.39-26.803 24.225 7.068 56.048-2.49 80.154-26.446 31.48-31.294 37.82-75.19 14.16-98.056-23.654-22.862-68.358-16.03-99.84 15.26"/><path d="M250.005 20.226c-5.442 0-10.818.23-16.17.582 6.632 9.965 10.522 21.843 10.522 34.624 0 3.147-.31 6.21-.763 9.232 2.134-.076 4.262-.16 6.41-.16 112.456 0 203.942 89.663 203.942 199.88 0 21.66-3.605 42.5-10.146 62.042 15.894 3.91 29.463 13.52 38.258 26.546 10.97-27.485 17.07-57.344 17.07-88.59 0-134.628-111.76-244.156-249.123-244.156"/></g></svg>